<svg width="400" height="300" viewBox="0 0 400 300" fill="none" xmlns="http://www.w3.org/2000/svg"><g clip-path="url(#clip0)"><path d="M304.659 251.585h-25.992v8.22h25.992v-8.22z" fill="#5B8495"/><path opacity=".3" d="M304.659 251.585h-25.992v3.14h25.992v-3.14z" fill="#446877"/><path d="M303.369 262.853h-41.753v-.739c0-1.293 1.014-2.401 2.396-2.401h36.96a2.382 2.382 0 0 1 2.397 2.401v.739z" fill="#446877"/><path d="M346.044 251.585H237.375c-1.29 0-2.396-1.108-2.396-2.401v-69.732c0-1.293 1.106-2.402 2.396-2.402h108.669c1.29 0 2.396 1.109 2.396 2.402v69.732c-.092 1.385-1.106 2.401-2.396 2.401z" fill="url(#paint0_linear)"/><path opacity=".5" d="M344.477 238.839H238.942a.827.827 0 0 1-.83-.831v-57.079c0-.461.369-.831.83-.831h105.535c.461 0 .829.37.829.831V238.1c-.092.462-.461.739-.829.739z" fill="#446877"/><path d="M343.739 181.761H239.771v55.508h103.968v-55.508z" fill="#E0ECF2"/><path d="M343.739 233.482H239.771v3.694h103.968v-3.694zm-94.843-45.164l-.645-1.108h-3.871v7.758h11.152v-6.65h-6.636zm4.148 8.313h-6.175v1.108h6.175v-1.108zm-4.148 8.22l-.645-1.109h-3.871v7.851h11.152v-6.742h-6.636zm4.148 8.404h-6.175v1.109h6.175v-1.109zm68.575-27.338h-60.095v39.623h60.095v-39.623z" fill="#AECAD7"/><path d="M320.513 185.917h-3.042v1.385h3.042v-1.385z" fill="#ED727D"/><path d="M317.379 185.917h-3.042v1.385h3.042v-1.385zm-3.042 0h-3.041v1.385h3.041v-1.385z" fill="#E8ECEF"/><path d="M320.513 192.474H262.63v27.801h57.883v-27.801z" fill="#fff"/><path d="M286.778 189.703H268.16v1.108h18.618v-1.108z" fill="#E8ECEF"/><path d="M270.556 194.137h-6.267v.923h6.267v-.923zm3.134 3.971h-6.268v.924h6.268v-.924zm16.038 6.834h-6.268v.924h6.268v-.924zm1.382-6.834h-9.032v5.726h9.032v-5.726zm9.77 6.834h-6.267v.924h6.267v-.924zm1.383-6.834h-9.033v5.726h9.033v-5.726zm9.862 6.834h-6.268v.924h6.268v-.924zm1.383-6.834h-9.033v5.726h9.033v-5.726zm-23.78 17.641h-6.268v.924h6.268v-.924zm1.382-6.835h-9.032v5.726h9.032v-5.726zm9.77 6.835h-6.267v.924h6.267v-.924zm1.383-6.835h-9.033v5.726h9.033v-5.726zm-24.333-14.777h-6.268v.923h6.268v-.923zm7.097 0h-6.268v.923h6.268v-.923zm7.374 0h-6.268v.923h6.268v-.923zm7.097 0h-6.268v.923h6.268v-.923z" fill="#DFECF4"/><path d="M320.605 189.703h-18.619v1.108h18.619v-1.108z" fill="#E8ECEF"/><path d="M263.644 191.181c.559 0 1.013-.455 1.013-1.016 0-.561-.454-1.016-1.013-1.016a1.015 1.015 0 0 0 0 2.032z" fill="#84A7B7"/><path d="M265.21 199.678a1.015 1.015 0 0 0 0-2.032c-.56 0-1.013.455-1.013 1.016 0 .561.453 1.016 1.013 1.016zm8.48 2.679h-6.268v.924h6.268v-.924zm-8.48 1.477a1.015 1.015 0 0 0 0-2.032c-.56 0-1.013.455-1.013 1.016 0 .561.453 1.016 1.013 1.016zm11.706 1.016h-6.268v.924h6.268v-.924zm-8.48 1.571a1.015 1.015 0 1 0-.002-2.03 1.015 1.015 0 0 0 .002 2.03zm8.48 1.662h-6.268v.924h6.268v-.924zm-8.48 1.478a1.015 1.015 0 1 0-.002-2.03 1.015 1.015 0 0 0 .002 2.03zm5.254 6.003h-6.268v.924h6.268v-.924zm-8.48 1.478a1.015 1.015 0 0 0 0-2.032c-.56 0-1.013.455-1.013 1.016 0 .561.453 1.016 1.013 1.016z" fill="#DFECF4"/><path d="M294.336 222.583h-28.388v.924h28.388v-.924zm-30.6 1.479a1.015 1.015 0 1 0-.002-2.03 1.015 1.015 0 0 0 .002 2.03z" fill="#E8ECEF"/><path d="M276.916 211.315h-6.268v.924h6.268v-.924zm-8.48 1.478a1.015 1.015 0 1 0-.002-2.03 1.015 1.015 0 0 0 .002 2.03z" fill="#DFECF4"/><path d="M266.409 191.181c.56 0 1.013-.455 1.013-1.016a1.014 1.014 0 1 0-2.027 0c0 .561.454 1.016 1.014 1.016z" fill="#E8ECEF"/><path d="M332.679 190.904h-60.095v39.622h60.095v-39.622z" fill="#AECAD7"/><path d="M331.573 190.904h-3.042v1.385h3.042v-1.385z" fill="#ED727D"/><path d="M328.531 190.904h-3.041v1.385h3.041v-1.385zm-3.133 0h-3.042v1.385h3.042v-1.385z" fill="#E8ECEF"/><path d="M331.573 197.461H273.69v27.801h57.883v-27.801z" fill="#fff"/><path d="M297.839 194.69H279.22v1.109h18.619v-1.109z" fill="#E8ECEF"/><path d="M281.709 199.216h-6.268v.924h6.268v-.924zm3.134 3.972h-6.268v.924h6.268v-.924zm15.945 6.834h-6.267v.924h6.267v-.924zm1.383-6.834h-9.033v5.726h9.033v-5.726zm9.862 6.834h-6.268v.924h6.268v-.924zm1.382-6.834h-9.032v5.726h9.032v-5.726zm9.863 6.834h-6.268v.924h6.268v-.924zm1.382-6.834h-9.032v5.726h9.032v-5.726zm-23.872 17.548h-6.267v.924h6.267v-.924zm1.383-6.835h-9.033v5.727h9.033v-5.727zm9.862 6.835h-6.268v.924h6.268v-.924zm1.382-6.835h-9.032v5.727h9.032v-5.727zm-24.333-14.685h-6.267v.924h6.267v-.924zm7.098 0h-6.268v.924h6.268v-.924zm7.373 0h-6.267v.924h6.267v-.924zm7.097 0h-6.267v.924h6.267v-.924z" fill="#DFECF4"/><path d="M331.757 194.69h-18.618v1.109h18.618v-1.109z" fill="#E8ECEF"/><path d="M274.704 196.169a1.015 1.015 0 1 0-.002-2.03 1.015 1.015 0 0 0 .002 2.03z" fill="#84A7B7"/><path d="M276.363 204.666a1.015 1.015 0 1 0-.002-2.03 1.015 1.015 0 0 0 .002 2.03zm8.48 2.678h-6.268v.924h6.268v-.924zm-8.48 1.57a1.015 1.015 0 1 0-.002-2.03 1.015 1.015 0 0 0 .002 2.03zm11.706 1.016h-6.268v.923h6.268v-.923zm-8.48 1.478a1.015 1.015 0 1 0-.002-2.03 1.015 1.015 0 0 0 .002 2.03zm8.48 1.662h-6.268v.924h6.268v-.924zm-8.48 1.57a1.015 1.015 0 1 0-.002-2.03 1.015 1.015 0 0 0 .002 2.03zm5.254 6.004h-6.268v.924h6.268v-.924zm-8.48 1.477a1.015 1.015 0 1 0-.002-2.03 1.015 1.015 0 0 0 .002 2.03z" fill="#DFECF4"/><path d="M305.397 227.571h-28.389v.923h28.389v-.923zm-30.509 1.478a1.015 1.015 0 1 0-.002-2.03 1.015 1.015 0 0 0 .002 2.03z" fill="#E8ECEF"/><path d="M288.069 216.303h-6.268v.923h6.268v-.923zm-8.48 1.478a1.015 1.015 0 1 0-.002-2.03 1.015 1.015 0 0 0 .002 2.03z" fill="#DFECF4"/><path d="M277.561 196.169a1.015 1.015 0 1 0-.002-2.03 1.015 1.015 0 0 0 .002 2.03z" fill="#E8ECEF"/><path d="M298.023 242.441h-12.627v1.571h12.627v-1.571z" fill="#5B8495"/><path d="M248.712 242.441h-2.397v1.571h2.397v-1.571z" fill="#ED717A"/><path d="M147.417 213.625H74.602v17.733h72.815v-17.733z" fill="#AFCCD8"/><path d="M119.305 227.479H80.132v-8.867h39.173v8.867z" fill="#5B8495"/><path d="M117.093 224.708h-3.318v-3.325h3.318v3.325z" fill="#AFCCD8"/><path d="M137.555 221.383h-3.319v3.325h3.319v-3.325z" fill="#5B8495"/><path d="M132.577 221.383h-3.318v3.325h3.318v-3.325z" fill="#ED717A"/><path d="M127.6 221.383h-3.318v3.325h3.318v-3.325z" fill="#53BAAC"/><path d="M142.532 221.383h-3.318v3.325h3.318v-3.325z" fill="#5B8495"/><path d="M147.417 236.346H74.602v17.733h72.815v-17.733z" fill="#AFCCD8"/><path d="M117.093 246.875h-3.318v-3.325h3.318v3.325z" fill="#ED717A"/><path d="M142.532 241.333h-3.318v3.325h3.318v-3.325z" fill="#F9B734"/><path d="M137.555 241.333h-3.319v3.325h3.319v-3.325z" fill="#5B8495"/><path d="M132.577 241.333h-3.318v3.325h3.318v-3.325z" fill="#ED717A"/><path d="M113.775 246.875h-9.955v-3.325h9.955v3.325z" fill="#5B8495"/><path d="M142.532 245.767h-3.318v3.325h3.318v-3.325z" fill="#ED717A"/><path d="M137.555 245.767h-3.318v3.325h3.318v-3.325z" fill="#53BAAC"/><path d="M132.577 245.767h-3.318v3.325h3.318v-3.325z" fill="#F9B734"/><path d="M82.898 236.346h-2.212v-4.988h2.212v4.988zm0-22.721h-2.212v-4.987h2.212v4.987zm59.542 22.721h-2.212v-4.988h2.212v4.988z" fill="#82A9B9"/><path d="M147.417 190.997H74.602v17.733h72.815v-17.733z" fill="#AFCCD8"/><path d="M119.305 204.851H80.132v-8.867h39.173v8.867z" fill="#5B8495"/><path d="M117.093 202.08h-3.318v-3.325h3.318v3.325z" fill="#AFCCD8"/><path d="M137.555 198.755h-3.319v3.325h3.319v-3.325z" fill="#ED717A"/><path d="M132.577 198.755h-3.318v3.325h3.318v-3.325z" fill="#5B8495"/><path d="M127.6 198.755h-3.318v3.325h3.318v-3.325z" fill="#53BAAC"/><path d="M142.532 198.755h-3.318v3.325h3.318v-3.325z" fill="#5B8495"/><path d="M142.44 213.625h-2.212v-4.987h2.212v4.987z" fill="#82A9B9"/><path d="M147.417 168.369H74.602v17.733h72.815v-17.733z" fill="#AFCCD8"/><path d="M93.405 186.102H90.64v-8.312h2.765v8.312zm25.9-7.759h-3.318v3.325h3.318v-3.325z" fill="#5B8495"/><path d="M82.898 168.369h-2.212v-4.988h2.212v4.988z" fill="#82A9B9"/><path d="M147.417 145.74H74.602v17.733h72.815V145.74z" fill="#AFCCD8"/><path d="M93.405 163.381H90.64v-8.312h2.765v8.312zm5.899 22.721h-4.24v-4.434h4.24v4.434zm0-22.721h-4.24v-4.433h4.24v4.433zm20.001-7.758h-3.318v3.325h3.318v-3.325zm0 17.733h-3.318v3.325h3.318v-3.325zm0-22.721h-3.318v3.325h3.318v-3.325zM83.45 176.127h-3.317v3.325h3.318v-3.325zm0-22.721h-3.317v3.325h3.318v-3.325z" fill="#5B8495"/><path d="M142.44 168.369h-2.212v-4.988h2.212v4.988zm-59.542 22.628h-2.212v-4.987h2.212v4.987zm59.542 0h-2.212v-4.987h2.212v4.987zm-59.542 67.977h-2.212v-4.987h2.212v4.987zm59.542 0h-2.212v-4.987h2.212v4.987z" fill="#82A9B9"/><path d="M147.417 258.974H74.602v3.879h72.815v-3.879z" fill="#AFCCD8"/><path d="M259.035 257.589H167.51v-52.184c0-1.57 1.198-2.771 2.765-2.771h85.995c1.567 0 2.765 1.201 2.765 2.771v52.184z" fill="#5B8495"/><path d="M270.003 257.588H156.542c0 2.864 2.304 5.265 5.253 5.265H264.75c2.949 0 5.253-2.309 5.253-5.265z" fill="#AFCCD8"/><path d="M255.717 253.248h-85.258c-.553 0-.921-.37-.921-.924V205.59c0-.555.368-.924.921-.924h85.258c.553 0 .922.369.922.924v46.734a.925.925 0 0 1-.922.924z" fill="url(#paint1_linear)"/><path d="M254.703 206.513h-83.414V251.4h83.414v-44.887z" fill="#E0ECF2"/><path d="M218.572 254.726h-10.507v1.477h10.507v-1.477zm36.223 0h-3.318v1.477h3.318v-1.477zm-4.793 0h-3.779v1.477h3.779v-1.477z" fill="#AFCCD8"/><path d="M229.725 210.669h-51.892v8.128h51.892v-8.128z" fill="#BCD2DE"/><path d="M229.725 241.702h-51.892v-26.138h4.609l1.29-2.124h7.927l1.29 2.124h36.776v26.138z" fill="#E9F3FA"/><path d="M193.133 215.564l1.291-2.124h7.834l1.29 2.124h-10.415z" fill="#E9F3FA"/><path d="M189.815 214.456h-4.793v.739h4.793v-.739zm10.6 0h-4.793v.739h4.793v-.739z" fill="#fff"/><path d="M214.24 215.564l-1.29-2.124h-7.927l-1.198 2.124h10.415z" fill="#E9F3FA"/><path d="M211.106 214.456h-4.792v.739h4.792v-.739zm18.619 2.217h-51.892v25.029h51.892v-25.029z" fill="#fff"/><path d="M209.724 237.084h-6.452v.739h6.452v-.739zm-3.134 1.386h-3.318v.739h3.318v-.739zm6.36-8.405h-9.678v6.188h9.678v-6.188zm11.337-11.175h-41.846v8.959h41.846v-8.959zm-3.042 18.194h-6.452v.739h6.452v-.739zm-3.134 1.386h-3.318v.739h3.318v-.739zm6.452-8.405h-9.678v6.188h9.678v-6.188zm-29.402 1.847h-8.48v-.739h8.48v.739zm-3.687.462h-4.793v.739h4.793v-.739zm-7.373 1.294c.865 0 1.566-.703 1.566-1.571 0-.867-.701-1.57-1.566-1.57-.866 0-1.567.703-1.567 1.57 0 .868.701 1.571 1.567 1.571zm11.06 3.047h-8.48v-.739h8.48v.739zm-3.687.462h-4.793v.739h4.793v-.739zm-7.373 1.293c.865 0 1.566-.703 1.566-1.57 0-.867-.701-1.57-1.566-1.57-.866 0-1.567.703-1.567 1.57 0 .867.701 1.57 1.567 1.57zm-4.793-25.676a.554.554 0 1 0-.001-1.107.554.554 0 0 0 .001 1.107zm1.474 0a.553.553 0 1 0 0-1.106.553.553 0 0 0 0 1.106zm1.475 0a.553.553 0 1 0 0-1.106.553.553 0 0 0 0 1.106z" fill="#E9F3FA"/><path d="M250.094 210.669h-14.378v31.033h14.378v-31.033z" fill="#BCD2DE"/><path d="M249.357 213.255h-12.812v24.938h12.812v-24.938z" fill="#fff"/><path d="M245.578 234.406h-7.097l-1.29 1.293v-5.819h8.387v4.526zm-2.304-6.742h-4.793l-1.29 1.293v-5.819h6.083v4.526zm-3.134-6.558h7.097l1.291 1.293v-5.818h-8.388v4.525z" fill="#E9F3FA"/><path d="M249.357 238.932h-12.812v1.754h12.812v-1.754z" fill="#fff"/><path d="M248.712 211.5h-7.189v.832h7.189v-.832zm-11.614.924a.554.554 0 1 0 0-1.108.554.554 0 0 0 0 1.108zm1.475 0a.553.553 0 1 0 0-1.106.553.553 0 0 0 0 1.106zm1.475 0a.554.554 0 1 0-.001-1.107.554.554 0 0 0 .001 1.107z" fill="#E9F3FA"/><path d="M244.288 230.804h-6.268v.462h6.268v-.462zm3.134-13.023h-6.268v.462h6.268v-.462zm-2.213.924h-4.055v.461h4.055v-.461zm-.921 13.115h-6.268v.462h6.268v-.462zm-1.844 1.016h-4.424v.462h4.424v-.462zm-2.12-5.726a1.66 1.66 0 0 0 1.659-1.663 1.66 1.66 0 1 0-3.318 0c0 .918.743 1.663 1.659 1.663zm-2.119 24.291h-49.312l1.752-2.032c.737-.924 2.212-1.478 3.686-1.478h38.435c1.475 0 2.858.554 3.687 1.478l1.752 2.032z" fill="#fff"/><path d="M196.912 250.015a2.306 2.306 0 0 0 2.304-2.309 2.306 2.306 0 0 0-2.304-2.309 2.307 2.307 0 0 0-2.304 2.309 2.307 2.307 0 0 0 2.304 2.309zm6.544 0a2.307 2.307 0 0 0 2.305-2.309 2.307 2.307 0 0 0-2.305-2.309 2.307 2.307 0 0 0-2.304 2.309 2.307 2.307 0 0 0 2.304 2.309zm6.544 0a2.307 2.307 0 0 0 2.305-2.309 2.307 2.307 0 0 0-2.305-2.309 2.307 2.307 0 0 0-2.304 2.309 2.307 2.307 0 0 0 2.304 2.309zm6.544 0a2.307 2.307 0 0 0 2.305-2.309 2.307 2.307 0 0 0-2.305-2.309 2.307 2.307 0 0 0-2.304 2.309 2.307 2.307 0 0 0 2.304 2.309zm6.452 0a2.307 2.307 0 0 0 2.305-2.309 2.307 2.307 0 0 0-2.305-2.309 2.307 2.307 0 0 0-2.304 2.309 2.307 2.307 0 0 0 2.304 2.309zm6.544 0a2.307 2.307 0 0 0 2.305-2.309 2.307 2.307 0 0 0-2.305-2.309 2.307 2.307 0 0 0-2.304 2.309 2.307 2.307 0 0 0 2.304 2.309z" fill="#BCD2DE"/><path d="M222.996 192.105h-21.199c-.553 0-.921-.369-.921-.924v-33.526c0-.555.368-.924.921-.924h21.199c.553 0 .922.369.922.924v33.526a.925.925 0 0 1-.922.924z" fill="#5B8495"/><path d="M222.075 158.486h-19.172v28.262h19.172v-28.262z" fill="#E0ECF2"/><path d="M214.609 190.073h-4.332a.728.728 0 0 1-.738-.738c0-.37.277-.739.738-.739h4.332c.369 0 .737.277.737.739a.727.727 0 0 1-.737.738z" fill="#446877"/><path d="M204.47 183.516v1.939c0 .277.184.462.461.462h1.936c.276 0 .46-.185.46-.462v-1.939c0-.278-.184-.462-.46-.462h-1.936c-.277 0-.461.184-.461.462zm4.424 0v1.939c0 .277.185.462.461.462h1.936c.276 0 .461-.185.461-.462v-1.939c0-.278-.185-.462-.461-.462h-1.936c-.276 0-.461.184-.461.462z" fill="#E9F2F8"/><path d="M213.319 183.516v1.939c0 .277.184.462.46.462h1.936c.276 0 .461-.185.461-.462v-1.939c0-.278-.185-.462-.461-.462h-1.936c-.276 0-.46.184-.46.462z" fill="#8EADBD"/><path d="M221.983 182.13h-19.08v4.526h19.08v-4.526zm0-23.644h-19.08v1.016h19.08v-1.016z" fill="#BCD2DE"/><path d="M204.47 183.516v1.939c0 .277.184.462.461.462h1.936c.276 0 .46-.185.46-.462v-1.939c0-.278-.184-.462-.46-.462h-1.936c-.277 0-.461.184-.461.462z" fill="#E9F2F8"/><path d="M204.47 161.441v1.94c0 .277.184.462.461.462h1.936c.276 0 .46-.185.46-.462v-1.94c0-.277-.184-.462-.46-.462h-1.936c-.277 0-.461.185-.461.462z" fill="#8EADBD"/><path d="M208.894 161.441v1.94c0 .277.185.462.461.462h1.936c.276 0 .461-.185.461-.462v-1.94c0-.277-.185-.462-.461-.462h-1.936c-.276 0-.461.185-.461.462z" fill="#BCD2DE"/><path d="M213.319 161.441v1.94c0 .277.184.462.46.462h1.936c.276 0 .461-.185.461-.462v-1.94c0-.277-.185-.462-.461-.462h-1.936c-.276 0-.46.185-.46.462z" fill="#8EADBD"/><path d="M217.743 161.441v1.94c0 .277.184.462.461.462h1.935c.277 0 .461-.185.461-.462v-1.94c0-.277-.184-.462-.461-.462h-1.935c-.277 0-.461.185-.461.462z" fill="#fff"/><path d="M206.59 164.305h-1.382v.277h1.382v-.277zm4.516 0h-1.382v.277h1.382v-.277zm4.332 0h-1.382v.277h1.382v-.277zm4.425 0h-1.383v.277h1.383v-.277z" fill="#BCD2DE"/><path d="M204.47 166.429v1.94c0 .277.184.461.461.461h1.936c.276 0 .46-.184.46-.461v-1.94c0-.277-.184-.462-.46-.462h-1.936c-.277.093-.461.277-.461.462z" fill="#8EADBD"/><path d="M208.894 166.429v1.94c0 .277.185.461.461.461h1.936c.276 0 .461-.184.461-.461v-1.94c0-.277-.185-.462-.461-.462h-1.936c-.276.093-.461.277-.461.462z" fill="#fff"/><path d="M213.319 166.429v1.94c0 .277.184.461.46.461h1.936c.276 0 .461-.184.461-.461v-1.94c0-.277-.185-.462-.461-.462h-1.936c-.276.093-.46.277-.46.462z" fill="#8EADBD"/><path d="M217.743 166.429v1.94c0 .277.184.461.461.461h1.935c.277 0 .461-.184.461-.461v-1.94c0-.277-.184-.462-.461-.462h-1.935c-.277.093-.461.277-.461.462zm-11.153 2.863h-1.382v.277h1.382v-.277zm4.516 0h-1.382v.277h1.382v-.277zm4.332 0h-1.382v.277h1.382v-.277zm4.425 0h-1.383v.277h1.383v-.277zm-15.393 2.402v1.939c0 .277.184.462.461.462h1.936c.276 0 .46-.185.46-.462v-1.939c0-.277-.184-.462-.46-.462h-1.936c-.277.092-.461.277-.461.462z" fill="#BCD2DE"/><path d="M208.894 171.694v1.939c0 .277.185.462.461.462h1.936c.276 0 .461-.185.461-.462v-1.939c0-.277-.185-.462-.461-.462h-1.936c-.276.092-.461.277-.461.462zm4.425 0v1.939c0 .277.184.462.46.462h1.936c.276 0 .461-.185.461-.462v-1.939c0-.277-.185-.462-.461-.462h-1.936c-.276.092-.46.277-.46.462z" fill="#8EADBD"/><path d="M217.743 171.694v1.939c0 .277.184.462.461.462h1.935c.277 0 .461-.185.461-.462v-1.939c0-.277-.184-.462-.461-.462h-1.935c-.277.092-.461.277-.461.462zm-11.153 2.863h-1.382v.277h1.382v-.277zm4.516 0h-1.382v.277h1.382v-.277zm4.332 0h-1.382v.277h1.382v-.277zm-10.968 1.939v1.94c0 .277.184.461.461.461h1.936c.276 0 .46-.184.46-.461v-1.94c0-.277-.184-.462-.46-.462h-1.936c-.277 0-.461.185-.461.462zm4.424 0v1.94c0 .277.185.461.461.461h1.936c.276 0 .461-.184.461-.461v-1.94c0-.277-.185-.462-.461-.462h-1.936c-.276 0-.461.185-.461.462zm4.425 0v1.94c0 .277.184.461.46.461h1.936c.276 0 .461-.184.461-.461v-1.94c0-.277-.185-.462-.461-.462h-1.936c-.276 0-.46.185-.46.462zm-6.729 2.863h-1.382v.277h1.382v-.277zm4.516 0h-1.382v.277h1.382v-.277zm4.332 0h-1.382v.277h1.382v-.277zm4.425-4.802h-1.383v.277h1.383v-.277z" fill="#BCD2DE"/><path d="M208.894 183.516v1.939c0 .277.185.462.461.462h1.936c.276 0 .461-.185.461-.462v-1.939c0-.278-.185-.462-.461-.462h-1.936c-.276 0-.461.184-.461.462z" fill="#E9F2F8"/><path d="M213.319 183.516v1.939c0 .277.184.462.46.462h1.936c.276 0 .461-.185.461-.462v-1.939c0-.278-.185-.462-.461-.462h-1.936c-.276 0-.46.184-.46.462z" fill="#8EADBD"/><path d="M217.743 183.516v1.939c0 .277.184.462.461.462h1.935c.277 0 .461-.185.461-.462v-1.939c0-.278-.184-.462-.461-.462h-1.935c-.277 0-.461.184-.461.462z" fill="#E9F2F8"/><path d="M191.659 192.105h-23.043c-.553 0-.922-.369-.922-.924v-40.915c0-.554.369-.924.922-.924h23.043c.553 0 .921.37.921.924v40.915a.924.924 0 0 1-.921.924z" fill="url(#paint2_linear)"/><path d="M191.659 191.181h-23.043v-40.915h4.516c.277 0 .461.092.646.277l1.29 1.293a.838.838 0 0 0 .645.277h8.572c.277 0 .461-.093.645-.277l1.291-1.293a.833.833 0 0 1 .645-.277h4.7v40.915h.093z" fill="#E0ECF2"/><path d="M191.659 188.226h-23.043v2.956h23.043v-2.956z" fill="#BCD2DE"/><path d="M170.92 187.118v2.309c0 .277.185.462.461.462h2.304c.277 0 .461-.185.461-.462v-2.309c0-.277-.184-.462-.461-.462h-2.304c-.276-.092-.461.185-.461.462z" fill="#fff"/><path d="M170.92 161.441v2.309c0 .277.185.462.461.462h2.304c.277 0 .461-.185.461-.462v-2.309c0-.277-.184-.462-.461-.462h-2.304c-.276 0-.461.185-.461.462z" fill="#8EADBD"/><path d="M175.99 161.441v2.309c0 .277.184.462.461.462h2.304c.276 0 .461-.185.461-.462v-2.309c0-.277-.185-.462-.461-.462h-2.304c-.185 0-.461.185-.461.462z" fill="#BCD2DE"/><path d="M181.151 161.441v2.309c0 .277.185.462.461.462h2.304c.277 0 .461-.185.461-.462v-2.309c0-.277-.184-.462-.461-.462h-2.304c-.276 0-.461.185-.461.462z" fill="#8EADBD"/><path d="M186.313 161.441v2.309c0 .277.184.462.461.462h2.304c.276 0 .461-.185.461-.462v-2.309c0-.277-.185-.462-.461-.462h-2.304c-.277 0-.461.185-.461.462z" fill="#fff"/><path d="M173.409 164.767h-1.659v.369h1.659v-.369zm5.161 0h-1.659v.369h1.659v-.369zm5.07 0h-1.659v.369h1.659v-.369zm5.161 0h-1.659v.369h1.659v-.369z" fill="#BCD2DE"/><path d="M170.92 167.352v2.309c0 .278.185.462.461.462h2.304c.277 0 .461-.184.461-.462v-2.309c0-.277-.184-.461-.461-.461h-2.304c-.276-.093-.461.184-.461.461z" fill="#8EADBD"/><path d="M175.99 167.352v2.309c0 .278.184.462.461.462h2.304c.276 0 .461-.184.461-.462v-2.309c0-.277-.185-.461-.461-.461h-2.304c-.185-.093-.461.184-.461.461z" fill="#fff"/><path d="M181.151 167.352v2.309c0 .278.185.462.461.462h2.304c.277 0 .461-.184.461-.462v-2.309c0-.277-.184-.461-.461-.461h-2.304c-.276-.093-.461.184-.461.461z" fill="#8EADBD"/><path d="M186.313 167.352v2.309c0 .278.184.462.461.462h2.304c.276 0 .461-.184.461-.462v-2.309c0-.277-.185-.461-.461-.461h-2.304c-.277-.093-.461.184-.461.461zm-12.904 3.233h-1.659v.37h1.659v-.37zm5.161 0h-1.659v.37h1.659v-.37zm5.07 0h-1.659v.37h1.659v-.37zm5.161 0h-1.659v.37h1.659v-.37zm-17.881 2.771v2.309c0 .277.185.462.461.462h2.304c.277 0 .461-.185.461-.462v-2.309c0-.277-.184-.461-.461-.461h-2.304c-.276 0-.461.184-.461.461z" fill="#BCD2DE"/><path d="M175.99 173.356v2.309c0 .277.184.462.461.462h2.304c.276 0 .461-.185.461-.462v-2.309c0-.277-.185-.461-.461-.461h-2.304c-.185 0-.461.184-.461.461zm5.161 0v2.309c0 .277.185.462.461.462h2.304c.277 0 .461-.185.461-.462v-2.309c0-.277-.184-.461-.461-.461h-2.304c-.276 0-.461.184-.461.461z" fill="#8EADBD"/><path d="M186.313 173.356v2.309c0 .277.184.462.461.462h2.304c.276 0 .461-.185.461-.462v-2.309c0-.277-.185-.461-.461-.461h-2.304c-.277 0-.461.184-.461.461zm-12.904 3.325h-1.659v.37h1.659v-.37zm5.161 0h-1.659v.37h1.659v-.37zm5.07 0h-1.659v.37h1.659v-.37zm-12.72 2.309v2.309c0 .277.185.462.461.462h2.304c.277 0 .461-.185.461-.462v-2.309c0-.277-.184-.462-.461-.462h-2.304c-.276-.092-.461.185-.461.462zm5.07 0v2.309c0 .277.184.462.461.462h2.304c.276 0 .461-.185.461-.462v-2.309c0-.277-.185-.462-.461-.462h-2.304c-.185-.092-.461.185-.461.462zm5.161 0v2.309c0 .277.185.462.461.462h2.304c.277 0 .461-.185.461-.462v-2.309c0-.277-.184-.462-.461-.462h-2.304c-.276-.092-.461.185-.461.462zm-7.742 3.233h-1.659v.369h1.659v-.369zm5.161 0h-1.659v.369h1.659v-.369zm5.07 0h-1.659v.369h1.659v-.369zm5.161-5.542h-1.659v.37h1.659v-.37zm-17.881-21.428v2.309c0 .277.185.462.461.462h2.304c.277 0 .461-.185.461-.462v-2.309c0-.277-.184-.461-.461-.461h-2.304c-.276-.093-.461.184-.461.461z" fill="#BCD2DE"/><path d="M175.99 155.253v2.309c0 .277.184.462.461.462h2.304c.276 0 .461-.185.461-.462v-2.309c0-.277-.185-.461-.461-.461h-2.304c-.185-.093-.461.184-.461.461zm5.161 0v2.309c0 .277.185.462.461.462h2.304c.277 0 .461-.185.461-.462v-2.309c0-.277-.184-.461-.461-.461h-2.304c-.276-.093-.461.184-.461.461z" fill="#8EADBD"/><path d="M186.313 155.253v2.309c0 .277.184.462.461.462h2.304c.276 0 .461-.185.461-.462v-2.309c0-.277-.185-.461-.461-.461h-2.304c-.277-.093-.461.184-.461.461zm-12.904 3.233h-1.659v.37h1.659v-.37zm5.161 0h-1.659v.37h1.659v-.37zm5.07 0h-1.659v.37h1.659v-.37zm5.161 0h-1.659v.37h1.659v-.37z" fill="#BCD2DE"/><path d="M175.99 187.118v2.309c0 .277.184.462.461.462h2.304c.276 0 .461-.185.461-.462v-2.309c0-.277-.185-.462-.461-.462h-2.304c-.185-.092-.461.185-.461.462z" fill="#fff"/><path d="M181.151 187.118v2.309c0 .277.185.462.461.462h2.304c.277 0 .461-.185.461-.462v-2.309c0-.277-.184-.462-.461-.462h-2.304c-.276-.092-.461.185-.461.462z" fill="#8EADBD"/><path d="M186.313 187.118v2.309c0 .277.184.462.461.462h2.304c.276 0 .461-.185.461-.462v-2.309c0-.277-.185-.462-.461-.462h-2.304c-.277-.092-.461.185-.461.462z" fill="#fff"/><path d="M177.741 151.466a.646.646 0 1 0-.001-1.291.646.646 0 0 0 .001 1.291z" fill="#5B8495"/><path d="M177.741 151.097a.276.276 0 0 0 .276-.277.276.276 0 1 0-.553 0c0 .153.124.277.277.277z" fill="#446877"/><path d="M200.691 77.209c-91.34 0-167.473 66.314-182.865 153.503l2.765.461c15.208-85.802 90.234-151.194 180.1-151.194s164.801 65.299 180.101 151.01l2.765-.462C367.98 143.431 291.848 77.209 200.691 77.209z" fill="#50B9AA"/><path d="M392.958 217.227l.922-.185a331.06 331.06 0 0 1-1.106-4.525l-.922.277 1.106 4.433zm-2.304-8.959l.922-.277c-2.581-8.867-5.715-17.641-9.494-26.046l-.829.37c3.687 8.405 6.82 17.179 9.401 25.953zm-38.711-72.503l.737-.554c-5.899-7.019-12.443-13.762-19.264-19.95l-.645.647c6.821 6.096 13.273 12.745 19.172 19.857zM13.862 195.337c-2.765 7.482-4.977 15.24-6.82 23.09l.921.185c1.752-7.758 4.056-15.516 6.729-22.998l-.83-.277zm365.363-17.179l.83-.369c-.646-1.385-1.383-2.771-2.028-4.156l-.83.462c.738 1.293 1.383 2.678 2.028 4.063zm-4.148-8.219l.83-.462c-.645-1.293-1.383-2.586-2.12-3.879l-.83.461c.738 1.386 1.475 2.679 2.12 3.88zm-17.42-27.062l.738-.554c-.922-1.2-1.844-2.401-2.858-3.602l-.737.554c1.014 1.201 1.936 2.402 2.857 3.602zM248.251 70.928l.184-.923c-1.474-.37-2.949-.74-4.516-1.016l-.184.923c1.475.277 3.041.647 4.516 1.016zm9.125 1.571c-1.475-.462-2.949-.832-4.424-1.293l-.277.923c1.475.37 2.95.831 4.424 1.293l.277-.923zm29.679 12.561l.369-.832c-8.296-4.064-16.96-7.573-25.716-10.344l-.276.923c8.756 2.771 17.42 6.189 25.623 10.252zM68.243 116.185a202.49 202.49 0 0 1 21.66-17.087l-.553-.739a213.18 213.18 0 0 0-21.752 17.087l.645.739zm-3.411 3.14l-.645-.646c-1.106 1.016-2.212 2.124-3.318 3.232l.645.647c1.106-1.108 2.212-2.217 3.318-3.233zM97.645 94.11l-.46-.83c-1.291.83-2.582 1.662-3.872 2.493l.46.74c1.291-.74 2.582-1.571 3.872-2.402zm-77.7 88.759c3.687-8.404 8.111-16.625 12.996-24.383l-.737-.462c-4.885 7.851-9.31 16.071-12.996 24.568l.737.277zm-3.595 8.497c.554-1.478 1.107-2.863 1.752-4.249l-.83-.369c-.552 1.385-1.198 2.863-1.75 4.341l.829.277zm305.822-84.417l.553-.739c-.83-.647-1.659-1.293-2.489-1.847l-.553.739c.83.646 1.659 1.293 2.489 1.847zM134.974 76.378l-.277-.832c-1.474.554-2.857 1.016-4.332 1.57l.369.832c1.383-.554 2.765-1.109 4.24-1.57zm190.792 33.526c1.199 1.016 2.397 1.94 3.503 2.956l.645-.739a563.89 563.89 0 0 0-3.503-2.955l-.645.738zM157.279 68.989a204.76 204.76 0 0 0-18.25 4.987l.277.924a194.678 194.678 0 0 1 18.157-4.988l-.184-.923zm-55.671 22.813c1.475-.832 2.95-1.663 4.332-2.494l-.461-.831-4.424 2.493.553.832z" fill="#ADC9D6"/><path d="M36.167 262.853l-3.041 7.666m10.415-7.666l-3.042 7.666m10.416-7.666l-3.042 7.666m10.323-7.666l-3.042 7.666m10.416-7.666l-3.042 7.666m10.415-7.666l-3.041 7.666m10.323-7.666l-3.042 7.666m10.415-7.666l-3.041 7.666m10.415-7.666l-3.134 7.666m10.415-7.666l-3.041 7.666m10.415-7.666l-3.042 7.666m10.416-7.666l-3.134 7.666m10.415-7.666l-3.041 7.666m10.415-7.666l-3.042 7.666m10.323-7.666l-3.041 7.666m10.415-7.666l-3.042 7.666m10.415-7.666l-3.041 7.666m10.323-7.666l-3.042 7.666m10.416-7.666l-3.042 7.666m10.415-7.666l-3.041 7.666m10.323-7.666l-3.042 7.666m10.415-7.666l-3.041 7.666m10.415-7.666l-3.042 7.666m10.323-7.666l-3.041 7.666m10.415-7.666l-3.042 7.666m10.416-7.666l-3.134 7.666m10.415-7.666l-3.042 7.666m10.416-7.666l-3.042 7.666m10.415-7.666l-3.134 7.666m10.416-7.666l-3.042 7.666m10.415-7.666l-3.041 7.666m10.323-7.666l-3.042 7.666m10.415-7.666l-3.041 7.666m10.415-7.666l-3.042 7.666m10.323-7.666l-3.041 7.666m10.415-7.666l-3.042 7.666m10.416-7.666l-3.042 7.666m10.323-7.666l-3.042 7.666m10.416-7.666l-3.042 7.666m10.415-7.666l-3.041 7.666m10.323-7.666l-3.042 7.666m10.415-7.666l-3.041 7.666m10.415-7.666l-3.042 7.666m10.323-7.666l-3.041 7.666m10.415-7.666l-3.042 7.666m10.416-7.666l-3.134 7.666" stroke="#AECAD7" stroke-miterlimit="10"/><path d="M16.35 263.13h368.682" stroke="#5C8394" stroke-width="2" stroke-miterlimit="10"/><path d="M200.876 30.29l-36.408 22.074V89.77c0 26.415 36.315 39.438 36.408 39.438 0 0 36.038-12.931 36.038-39.438V51.163L200.876 30.29z" fill="#037F6C"/><path d="M200.968 38.51l-31.43 18.287v32.419c0 22.259 31.338 32.511 31.43 32.603 0 0 30.877-10.344 30.877-32.603V56.797L200.968 38.51z" fill="#00A58B"/><path d="M200.691 44.42v70.841s25.716-8.127 25.716-27.061V59.937l-25.716-15.516z" fill="#38B39F"/><path d="M200.691 89.585l-9.585 5.08v-4.433l1.843-6.28-7.742-7.574v-4.434l10.691 2.864 4.793-9.698 4.793 9.698 10.692-2.864v4.434l-7.742 7.573 1.751 6.28v4.434l-9.494-5.08z" fill="#00A58B"/><path d="M200.691 85.152l-9.585 5.08 1.843-10.714-7.742-7.574 10.691-1.57 4.793-9.698 4.793 9.698 10.692 1.57-7.742 7.574 1.751 10.714-9.494-5.08z" fill="#fff"/><path d="M244.933 138.629l14.471 14.5 29.125-29.093" stroke="#00A58B" stroke-width="8" stroke-miterlimit="10"/><path d="M82.805 63.632L45.385 42.02v43.316l37.42-21.704zm306.282 32.234l-29.31-16.902v33.896l29.31-16.994z" fill="#F9B734"/><path d="M17.641 135.672L4 127.729v15.794l13.641-7.851zm290.797-76.197l-13.641-7.943v15.794l13.641-7.85zm-181.667.093l-7.097-4.064v8.128l7.097-4.064zM396 154.699l-7.005-4.064v8.22l7.005-4.156z" fill="#ED717A"/></g><defs><linearGradient id="paint0_linear" x1="291.694" y1="251.598" x2="291.694" y2="177.145" gradientUnits="userSpaceOnUse"><stop stop-color="#395A67"/><stop offset="1" stop-color="#446877"/></linearGradient><linearGradient id="paint1_linear" x1="213.054" y1="253.259" x2="213.054" y2="204.649" gradientUnits="userSpaceOnUse"><stop stop-color="#395A67"/><stop offset="1" stop-color="#446877"/></linearGradient><linearGradient id="paint2_linear" x1="180.171" y1="192.07" x2="180.171" y2="149.324" gradientUnits="userSpaceOnUse"><stop stop-color="#395A67"/><stop offset="1" stop-color="#446877"/></linearGradient><clipPath id="clip0"><path fill="#fff" d="M0 0h400v300H0z"/></clipPath></defs></svg>